HIERARCHY
ROOT Hips
{
	OFFSET 0.000000 0.000000 0.000000
	CHANNELS 6 Xposition Yposition Zposition Zrotation Yrotation Xrotation 
	JOINT LHipJoint
	{
		OFFSET 0.000000 0.000000 0.000000
		CHANNELS 3 Zrotation Yrotation Xrotation
		JOINT LeftUpLeg
		{
			OFFSET 1.363060 -1.794630 0.839290
			CHANNELS 3 Zrotation Yrotation Xrotation
			JOINT LeftLeg
			{
				OFFSET 2.448110 -6.726130 0.000000
				CHANNELS 3 Zrotation Yrotation Xrotation
				JOINT LeftFoot
				{
					OFFSET 2.562200 -7.039590 0.000000
					CHANNELS 3 Zrotation Yrotation Xrotation
					JOINT LeftToeBase
					{
						OFFSET 0.157640 -0.433110 2.322550
						CHANNELS 3 Zrotation Yrotation Xrotation
						End Site
						{
							OFFSET 0.000000 0.000000 0.000000
						}
					}
				}
			}
		}
	}
	JOINT RHipJoint
	{
		OFFSET 0.000000 0.000000 0.000000
		CHANNELS 3 Zrotation Yrotation Xrotation
		JOINT RightUpLeg
		{
			OFFSET -1.305520 -1.794630 0.839290
			CHANNELS 3 Zrotation Yrotation Xrotation
			JOINT RightLeg
			{
				OFFSET -2.542530 -6.985550 0.000000
				CHANNELS 3 Zrotation Yrotation Xrotation
				JOINT RightFoot
				{
					OFFSET -2.568260 -7.056230 0.000000
					CHANNELS 3 Zrotation Yrotation Xrotation
					JOINT RightToeBase
					{
						OFFSET -0.164730 -0.452590 2.363150
						CHANNELS 3 Zrotation Yrotation Xrotation
						End Site
						{
							OFFSET 0.000000 0.000000 0.000000
						}
					}
				}
			}
		}
	}
}
MOTION
Frames: 19
Frame Time: 0.008333
4.174152 16.407000 -1.928617 108.426484 -67.453397 -116.745757 -3.869053 -4.769071 -0.704270 -9.692839 -10.182216 -137.110496 3.227270 7.666599 87.405035 2.602235 13.892430 8.966814 4.396000 -0.000000 -38.454400 12.721418 3.435613 -5.447601 -11.907198 -1.617208 -5.731111 -0.062439 -3.647476 45.152718 -1.403848 -3.968289 -21.070006 1.066000 0.000000 -59.627000
4.190262 16.379183 -1.926326 107.910288 -67.707373 -116.175197 -3.970069 -4.724470 -0.494298 -9.357557 -10.160904 -135.252168 2.577422 7.291333 82.697930 2.597193 13.947981 11.601285 5.027900 -0.000001 -38.337900 12.741307 3.479557 -5.606772 -11.834754 -1.897447 -5.925647 -0.030814 -3.708518 45.620169 -1.402710 -3.945661 -21.340592 1.085401 0.000000 -59.353200
4.212525 16.352934 -1.924182 107.343426 -68.005150 -115.531472 -4.093873 -4.679886 -0.246596 -8.934865 -10.081285 -133.056881 1.870273 6.847876 77.114032 2.538190 13.730449 14.303301 5.572000 -0.000000 -38.736800 12.758157 3.534350 -5.796946 -11.701505 -2.143945 -6.090901 -0.000423 -3.774078 46.040829 -1.415538 -4.007878 -21.575535 1.118500 0.000000 -59.002700
4.240441 16.329385 -1.921964 106.745799 -68.351327 -114.829189 -4.247976 -4.632220 0.047661 -8.430652 -9.968968 -130.508314 1.119837 6.333683 70.592882 2.411691 13.183905 16.908116 5.939000 -0.000000 -39.933500 12.768761 3.597963 -6.016521 -11.496422 -2.353670 -6.224776 0.029049 -3.842033 46.396989 -1.442574 -4.156726 -21.764500 1.165600 -0.000001 -58.564500
4.273122 16.309689 -1.919843 106.142056 -68.736609 -114.095340 -4.436340 -4.582690 0.397434 -7.855108 -9.833942 -127.568152 0.331774 5.740188 63.067963 2.205060 12.268315 19.233483 6.046200 -0.000000 -41.801900 12.773850 3.670592 -6.263763 -11.226889 -2.531133 -6.319314 0.057886 -3.909985 46.666103 -1.480718 -4.375383 -21.893999 1.222400 -0.000000 -58.051300
4.309566 16.295148 -1.918799 105.579072 -69.124509 -113.379616 -4.648279 -4.540499 0.812160 -7.200921 -9.644733 -124.130565 -0.504559 5.034037 54.389334 1.914766 11.013212 21.238331 5.879900 0.000000 -44.989400 12.782928 3.755824 -6.530262 -10.929050 -2.658241 -6.366819 0.083463 -3.976061 46.831088 -1.527215 -4.648996 -21.953432 1.283800 -0.000000 -57.483800
4.347898 16.286679 -1.919259 105.168092 -69.451274 -112.840889 -4.848495 -4.536807 1.274829 -6.424199 -9.299781 -120.030529 -1.389438 4.152697 44.475735 1.555163 9.525778 22.815827 5.466900 0.000000 -48.773700 12.802399 3.859313 -6.814914 -10.664011 -2.727921 -6.300928 0.103707 -4.038529 46.858369 -1.571924 -4.920913 -21.926272 1.334800 0.000000 -56.924899
4.386706 16.285173 -1.922679 105.088379 -69.602097 -112.730036 -4.954556 -4.627993 1.731348 -5.358941 -8.599872 -114.968670 -2.266690 2.988439 33.210069 1.192615 8.162283 24.082913 5.008200 0.000001 -52.778900 12.842189 3.985682 -7.097648 -10.517964 -2.665138 -6.038776 0.108989 -4.095799 46.726497 -1.610091 -5.164781 -21.802196 1.366900 0.000000 -56.432400
4.423167 16.290636 -1.928143 105.676680 -69.460400 -113.548704 -4.876541 -4.896425 2.029164 -3.738255 -7.277749 -108.696179 -2.909495 1.530523 21.052340 0.941274 7.430745 25.072953 4.776299 -0.000000 -55.049000 12.887236 4.118917 -7.350461 -10.516124 -2.363544 -5.390925 0.092323 -4.145176 46.388392 -1.635736 -5.341072 -21.571169 1.369900 0.000000 -56.043500
4.453859 16.302923 -1.932474 107.353045 -68.992998 -115.876874 -4.631481 -5.359241 1.977466 -1.521013 -5.260810 -101.349127 -3.056318 0.073499 9.263224 0.871025 7.615548 25.750637 4.934000 0.000001 -53.962000 12.910719 4.214473 -7.521812 -10.516346 -1.639832 -4.180596 0.054392 -4.185406 45.801960 -1.658793 -5.489602 -21.236957 1.353900 -0.000000 -55.712401
4.474407 16.322062 -1.930870 110.275456 -68.312748 -119.877420 -4.380989 -5.856893 1.507144 0.117434 -2.918539 -94.098891 -2.903186 -0.901412 -0.126056 0.795771 7.480525 25.711120 4.772300 0.000000 -49.440500 12.889633 4.220871 -7.565344 -10.237647 -0.409011 -2.409130 0.014503 -4.213470 44.951320 -1.696114 -5.683970 -20.815116 1.337300 -0.000000 -55.338600
4.482715 16.348536 -1.923974 113.734571 -67.534727 -124.598888 -4.198110 -6.192386 0.773792 -0.609886 -0.635463 -88.543683 -2.977456 -1.342701 -6.024925 0.448048 4.981365 24.741829 3.209500 0.000001 -43.847300 12.849772 4.140698 -7.456443 -9.703287 1.047570 -0.434752 -0.012367 -4.216926 43.908452 -1.738906 -5.884863 -20.316523 1.312800 -0.000001 -54.969700
4.479712 16.382530 -1.916768 116.778046 -66.743546 -128.763594 -4.070247 -6.283455 0.119967 -2.999206 1.402680 -86.159479 -3.305357 -1.368165 -6.844688 -0.071804 0.901428 21.921217 0.964600 -0.000000 -39.631800 12.854567 4.029141 -7.238943 -9.252625 2.311334 1.290969 -0.024692 -4.192667 42.790084 -1.752487 -5.936931 -19.752950 1.252500 0.000000 -54.790900
4.466331 16.423310 -1.910532 119.212189 -66.015383 -132.033621 -4.015846 -6.222932 -0.271968 -5.095988 3.123468 -85.776762 -3.615985 -1.165264 -4.220004 -0.284135 -2.381236 17.992684 -0.646600 0.000000 -37.543400 12.887520 3.904961 -6.958672 -8.968712 3.256284 2.590307 -0.027577 -4.139022 41.662704 -1.728952 -5.810857 -19.151905 1.159299 -0.000000 -54.815600
4.443499 16.469743 -1.904269 121.281533 -65.378263 -134.662134 -4.056300 -6.171714 -0.431019 -5.965484 4.575097 -84.539915 -3.700337 -1.048749 -2.788414 -0.252978 -3.613270 15.521363 -1.185000 0.000000 -37.409600 12.886026 3.760020 -6.622029 -8.721741 3.955241 3.480693 -0.029451 -4.048609 40.553987 -1.685042 -5.590584 -18.543328 1.055900 0.000001 -54.927200
4.413154 16.520192 -1.898380 123.164003 -64.863656 -136.838967 -4.227029 -6.136807 -0.355222 -5.302451 5.624247 -82.305894 -3.512660 -0.993256 -2.412437 -0.190380 -2.543514 14.505590 -0.675600 0.000000 -38.959800 12.840994 3.600986 -6.256846 -8.421718 4.491189 4.036033 -0.029009 -3.930129 39.466298 -1.636076 -5.351802 -17.944086 0.957300 0.000000 -55.040700
4.378018 16.572501 -1.894132 124.857521 -64.454183 -138.639076 -4.517027 -6.104580 -0.105996 -3.266459 6.141568 -79.085641 -3.077648 -0.959577 -2.813974 -0.077727 0.612143 14.969362 0.732000 0.000001 -41.914100 12.773153 3.436054 -5.881624 -8.097238 4.909923 4.372430 -0.027339 -3.796865 38.392562 -1.587530 -5.121778 -17.358914 0.866500 -0.000000 -55.142900
4.340538 16.624509 -1.892092 126.267595 -64.125962 -140.094458 -4.876280 -6.045109 0.161948 -0.919427 6.205152 -75.024067 -2.556047 -0.931639 -4.071572 0.222884 4.622945 17.207147 2.567800 0.000000 -45.764400 12.703104 3.257946 -5.489201 -7.817550 5.217905 4.610626 -0.027889 -3.656554 37.323791 -1.538565 -4.896761 -16.786479 0.781800 -0.000000 -55.246699
4.302833 16.674076 -1.891814 127.353355 -63.849223 -141.296517 -5.258129 -5.944798 0.297682 0.700707 6.114921 -70.356841 -2.122862 -0.895322 -6.234898 0.842273 8.140897 21.411417 4.318700 -0.000000 -49.599900 12.646902 3.061241 -5.078375 -7.627325 5.436980 4.893053 -0.032319 -3.517200 36.244018 -1.488951 -4.673921 -16.224990 0.701901 -0.000000 -55.359401
